<svg t="1732633906158" class="icon" viewBox="0 0 1024 1024" version="1.1" xmlns="http://www.w3.org/2000/svg" p-id="8770" xmlns:xlink="http://www.w3.org/1999/xlink" width="200" height="200"><path d="M512.896 562.912c63.456 0 104.576-67.968 104.608-101.984 0-21.856-69.632-36.128-111.872-36.416-30.688-0.224-106.912 14.656-98.464 50.048 9.472 39.808 52.512 88.352 105.728 88.352z m-2.048 408.96c-195.552 0-455.552-37.888-455.552-365.472 0-105.536 22.272-210.72 63.232-301.088a130.176 130.176 0 0 1-84.032-121.536 130.08 130.08 0 0 1 129.92-129.92h0.192a129.28 129.28 0 0 1 104.864 53.504l0.256 0.384a391.488 391.488 0 0 1 241.12-81.6c89.248 0 172.224 28.448 242.496 82.72a128.992 128.992 0 0 1 106.24-54.976 130.08 130.08 0 0 1 129.92 129.92 130.112 130.112 0 0 1-86.016 122.272c40.8 90.144 62.944 195.104 62.944 300.352-0.064 327.584-260.032 365.472-455.584 365.472zM224.288 245.408L196.48 296.352c-48.608 89.024-75.36 199.136-75.36 310.016 0 210.08 116.544 299.68 389.728 299.68s389.728-89.632 389.728-299.68c0-110.976-26.816-221.088-75.424-310.144l-28.032-51.328 61.248 2.848c36.608 0 65.28-28.704 65.28-64.032s-28.768-64.096-64.096-64.096a63.68 63.68 0 0 0-62.464 49.888l-12.8 56.704-42.016-40.192c-65.312-62.464-143.168-94.144-231.456-94.144-87.52 0-164.832 31.104-229.76 92.448L240.064 223.136 226.56 168.352a64 64 0 0 0-62.048-48.704h-0.096c-35.328 0-64.096 28.768-64.096 64.096s28.768 64.096 64.096 64.096l1.856-0.16 57.984-2.304zM512 924.832c-197.952 0-301.536-164.096-301.536-326.176 0-51.232 21.728-218.368 301.536-218.368s301.504 167.136 301.504 218.368c0 162.048-103.552 326.176-301.504 326.176z m0-522.624c-65.6 0-279.616 14.144-279.616 196.416 0 151.2 96.032 304.256 279.616 304.256s279.584-153.056 279.584-304.256c0-182.24-213.984-196.416-279.584-196.416z m197.984-111.424a42.24 42.24 0 0 1-84.48 0 42.24 42.24 0 0 1 84.48 0z m-208.96 267.392h21.92v251.296h-21.92v-251.296z m42.464 259.84c-105.76 0-190.368-72.64-223.776-197.952l42.368-11.296c33.536 125.76 123.008 186.656 233.44 158.624l10.752 42.56a257.984 257.984 0 0 1-62.752 8.064zM327.936 265.248h129.504v43.84h-129.504v-43.84z" p-id="8771" fill="#597ef7"></path></svg>
